<svg width="18" height="18" viewBox="0 0 18 18" xmlns="http://www.w3.org/2000/svg">
  <g fill="none" fill-rule="evenodd">
    <path d="M17.64 9.204c0-.638-.057-1.252-.164-1.842H9v3.485h4.844a4.136 4.136 0 0 1-1.797 2.715v2.256h2.908c1.701-1.566 2.685-3.872 2.685-6.614Z" fill="#4285F4"/>
    <path d="M9 18c2.43 0 4.467-.806 5.956-2.182l-2.908-2.256c-.806.54-1.837.858-3.048.858-2.342 0-4.326-1.581-5.035-3.708H.957v2.332A8.996 8.996 0 0 0 9 18Z" fill="#34A853"/>
    <path d="M3.965 10.712A5.41 5.41 0 0 1 3.683 9c0-.594.102-1.17.282-1.712V4.956H.957A8.996 8.996 0 0 0 0 9c0 1.452.348 2.824.957 4.044l3.008-2.332Z" fill="#FBBC05"/>
    <path d="M9 3.579c1.321 0 2.508.454 3.441 1.344l2.584-2.584C13.462.9 11.425 0 9 0 5.491 0 2.489 1.994.957 4.956l3.008 2.332C4.674 5.161 6.658 3.579 9 3.579Z" fill="#EA4335"/>
  </g>
</svg>
